<svg width="28" height="28" viewBox="0 0 28 28" fill="none" xmlns="http://www.w3.org/2000/svg">
<path fill-rule="evenodd" clip-rule="evenodd" d="M1.42188 7.68359V4.53906C1.42188 2.82023 2.82026 1.42188 4.53906 1.42188H7.68359C8.07622 1.42188 8.39453 1.10357 8.39453 0.710938C8.39453 0.318309 8.07622 0 7.68359 0H4.53906C2.03623 0 0 2.03621 0 4.53906V7.68359C0 8.07622 0.318309 8.39453 0.710938 8.39453C1.10357 8.39453 1.42188 8.07622 1.42188 7.68359ZM7.68359 26.5781C8.07622 26.5781 8.39453 26.8964 8.39453 27.2891C8.39453 27.6817 8.07622 28 7.68359 28H4.53906C2.03623 28 0 25.9638 0 23.4609V20.3164C0 19.9238 0.318309 19.6055 0.710938 19.6055C1.10357 19.6055 1.42188 19.9238 1.42188 20.3164V23.4609C1.42188 25.1797 2.82026 26.5781 4.53906 26.5781H7.68359ZM28 20.3164V23.4609C28 25.9638 25.9638 28 23.4609 28H20.3164C19.9238 28 19.6055 27.6817 19.6055 27.2891C19.6055 26.8964 19.9238 26.5781 20.3164 26.5781H23.4609C25.1797 26.5781 26.5781 25.1797 26.5781 23.4609V20.3164C26.5781 19.9238 26.8964 19.6055 27.2891 19.6055C27.6817 19.6055 28 19.9238 28 20.3164ZM28 4.53906V7.68359C28 8.07622 27.6817 8.39453 27.2891 8.39453C26.8964 8.39453 26.5781 8.07622 26.5781 7.68359V4.53906C26.5781 2.82023 25.1797 1.42188 23.4609 1.42188H20.3164C19.9238 1.42188 19.6055 1.10357 19.6055 0.710938C19.6055 0.318309 19.9238 0 20.3164 0H23.4609C25.9638 0 28 2.03621 28 4.53906ZM18.9062 20.6947C19.2057 20.418 19.2242 19.9509 18.9476 19.6514C18.6709 19.3519 18.2038 19.3334 17.9043 19.61C16.8385 20.5945 15.4519 21.1367 13.9999 21.1367C12.548 21.1367 11.1614 20.5945 10.0956 19.61C9.796 19.3334 9.329 19.3519 9.0523 19.6514C8.77564 19.9509 8.79415 20.418 9.09368 20.6947C10.4331 21.9319 12.1755 22.6132 13.9999 22.6132C15.8244 22.6132 17.5668 21.9319 18.9062 20.6947ZM15.4766 10.5547V15.8047C15.4766 16.845 14.6302 17.6914 13.5898 17.6914H12.9883C12.5805 17.6914 12.25 17.3609 12.25 16.9531C12.25 16.5454 12.5805 16.2148 12.9883 16.2148H13.5898C13.816 16.2148 14 16.0308 14 15.8047V10.5547C14 10.1469 14.3305 9.81641 14.7383 9.81641C15.146 9.81641 15.4766 10.1469 15.4766 10.5547ZM20.5625 12.6191V10.5137C20.5625 10.1286 20.2503 9.81641 19.8652 9.81641C19.4802 9.81641 19.168 10.1286 19.168 10.5137V12.6191C19.168 13.0042 19.4802 13.3164 19.8652 13.3164C20.2503 13.3164 20.5625 13.0042 20.5625 12.6191ZM7.60156 12.6191C7.60156 13.0042 7.91375 13.3164 8.29883 13.3164C8.68391 13.3164 8.99609 13.0042 8.99609 12.6191V10.5137C8.99609 10.1286 8.68391 9.81641 8.29883 9.81641C7.91375 9.81641 7.60156 10.1286 7.60156 10.5137V12.6191Z" fill="#0070F2"/>
</svg>
