<svg width="336" height="110" viewBox="0 0 336 110" fill="none" xmlns="http://www.w3.org/2000/svg">
<path d="M141.4 73.2C138.07 71.39 135.55 68.86 133.82 65.64C132.09 62.41 131.23 58.71 131.23 54.53C131.23 50.26 132.12 46.54 133.89 43.37C135.67 40.2 138.22 37.76 141.56 36.05C144.9 34.34 148.85 33.49 153.41 33.49C157.96 33.49 161.89 34.35 165.2 36.08C168.52 37.81 171.06 40.26 172.84 43.43C174.62 46.6 175.5 50.3 175.5 54.54C175.5 58.79 174.58 62.54 172.75 65.78C170.92 69.02 168.33 71.52 164.98 73.29C161.63 75.06 157.76 75.94 153.35 75.94C148.71 75.92 144.72 75.01 141.4 73.2ZM158.58 64.31C160.01 63.36 161.1 62.05 161.83 60.36C162.56 58.67 162.93 56.73 162.93 54.52C162.93 52.37 162.53 50.48 161.74 48.84C160.95 47.2 159.84 45.93 158.4 45.04C156.96 44.15 155.3 43.69 153.41 43.69C151.48 43.69 149.79 44.14 148.33 45.04C146.87 45.94 145.76 47.2 144.98 48.83C144.2 50.46 143.81 52.36 143.81 54.52C143.81 56.72 144.2 58.68 144.98 60.37C145.76 62.07 146.87 63.38 148.32 64.32C149.76 65.26 151.44 65.72 153.35 65.72C155.4 65.73 157.14 65.26 158.58 64.31Z" fill="#22262B"/>
<path d="M180.9 42.67H189.93C190.49 42.67 190.97 43.07 191.07 43.62L193.53 56.75C193.92 58.86 194.34 61.52 194.79 64.74C195.04 62.24 195.46 59.6 196.05 56.81L198.73 43.61C198.84 43.07 199.32 42.68 199.87 42.68H210.6C211.16 42.68 211.64 43.08 211.74 43.62L214.25 56.81C214.74 59.27 215.16 61.91 215.51 64.74C215.8 62.57 216.26 59.93 216.89 56.81L219.54 43.61C219.65 43.07 220.13 42.68 220.68 42.68H228.68C229.43 42.68 229.98 43.38 229.81 44.11L222.63 74.44C222.51 74.96 222.04 75.33 221.5 75.33H210C209.44 75.33 208.97 74.94 208.86 74.39L206.12 60.46C205.71 58.51 205.33 56.39 204.98 54.11C204.8 55.63 204.44 57.75 203.9 60.46L201.1 74.39C200.99 74.93 200.51 75.32 199.96 75.32H188.32C187.78 75.32 187.32 74.95 187.19 74.43L179.77 44.1C179.6 43.38 180.15 42.67 180.9 42.67Z" fill="#22262B"/>
<path d="M235.74 49.99C235.74 48.62 235.71 47.28 235.64 45.95C235.6 45.2 235.56 44.52 235.51 43.92C235.46 43.24 235.99 42.67 236.67 42.67H245.37C245.95 42.67 246.44 43.1 246.52 43.68C246.58 44.16 246.65 44.73 246.71 45.38C246.83 46.56 246.89 47.43 246.89 48H247.01C248.14 45.95 249.56 44.45 251.27 43.49C252.98 42.53 255.03 42.06 257.43 42.06C261.14 42.06 263.84 43.15 265.55 45.32C267.26 47.5 268.11 50.49 268.11 54.29V74.17C268.11 74.81 267.59 75.33 266.95 75.33H257.89C257.25 75.33 256.73 74.81 256.73 74.17V57.54C256.73 55.63 256.4 54.17 255.73 53.16C255.07 52.16 253.95 51.65 252.39 51.65C250.67 51.65 249.37 52.23 248.47 53.38C247.57 54.53 247.12 56.17 247.12 58.3V74.17C247.12 74.81 246.6 75.33 245.96 75.33H236.9C236.26 75.33 235.74 74.81 235.74 74.17V49.99V49.99Z" fill="#22262B"/>
<path d="M276.99 34.1H286.63C287.27 34.1 287.79 34.62 287.79 35.26V74.17C287.79 74.81 287.27 75.33 286.63 75.33H276.99C276.35 75.33 275.83 74.81 275.83 74.17V35.26C275.83 34.62 276.35 34.1 276.99 34.1Z" fill="#22262B"/>
<path d="M296.37 35.26C296.37 34.62 296.89 34.1 297.53 34.1H313.49C320.75 34.1 326.29 35.77 330.11 39.1C333.93 42.44 335.85 47.54 335.85 54.4C335.85 58.83 334.95 62.61 333.14 65.75C331.33 68.89 328.79 71.27 325.5 72.89C322.21 74.51 318.39 75.32 314.04 75.32H297.53C296.89 75.32 296.37 74.8 296.37 74.16V35.26V35.26ZM313.49 65.38C316.79 65.38 319.29 64.45 321 62.6C322.71 60.75 323.56 58.05 323.56 54.52C323.56 51.15 322.72 48.56 321.03 46.75C319.34 44.95 316.77 44.04 313.32 44.04H308.34V65.37H313.49V65.38Z" fill="#22262B"/>
<path d="M22.69 45.54C20.93 45.54 19.18 44.87 17.84 43.53C15.16 40.85 15.16 36.51 17.84 33.83L49.66 2.01C52.34 -0.67 56.68 -0.67 59.36 2.01C62.04 4.69 62.04 9.02998 59.36 11.71L27.54 43.53C26.2 44.87 24.44 45.54 22.69 45.54Z" fill="#22262B"/>
<path d="M56.59 36.51C53.91 33.83 53.91 29.49 56.59 26.81L65.68 17.72C68.39 15.01 72.8 15.04 75.47 17.81C78.09 20.53 77.89 24.91 75.22 27.58L66.29 36.51C63.61 39.19 59.27 39.19 56.59 36.51Z" fill="#22262B"/>
<path d="M22.48 77.48C20.72 77.48 18.97 76.81 17.63 75.47C14.95 72.79 14.95 68.45 17.63 65.77L40.75 42.65C43.43 39.97 47.77 39.97 50.45 42.65C53.13 45.33 53.13 49.67 50.45 52.35L27.33 75.47C25.99 76.81 24.23 77.48 22.48 77.48Z" fill="#22262B"/>
<path d="M38.2999 93.22C36.5399 93.22 34.7899 92.55 33.4499 91.21C30.7699 88.53 30.7699 84.19 33.4499 81.51L43.2699 71.69C45.9499 69.01 50.2899 69.01 52.9699 71.69C55.6499 74.37 55.6499 78.71 52.9699 81.39L43.1499 91.21C41.8099 92.55 40.0599 93.22 38.2999 93.22Z" fill="#22262B"/>
<path d="M63.97 67.55C62.21 67.55 60.46 66.88 59.12 65.54C56.44 62.86 56.44 58.52 59.12 55.84L81.5 33.46C84.18 30.78 88.52 30.78 91.2 33.46C93.88 36.14 93.88 40.48 91.2 43.16L68.82 65.54C67.48 66.88 65.72 67.55 63.97 67.55Z" fill="#22262B"/>
<path d="M6.84 61.35C10.6176 61.35 13.68 58.2876 13.68 54.51C13.68 50.7324 10.6176 47.67 6.84 47.67C3.06237 47.67 0 50.7324 0 54.51C0 58.2876 3.06237 61.35 6.84 61.35Z" fill="#22262B"/>
<path d="M54 109.4C52.24 109.4 50.49 108.73 49.15 107.39C46.47 104.71 46.47 100.37 49.15 97.69L81.54 65.3C84.22 62.62 88.56 62.62 91.24 65.3C93.92 67.98 93.92 72.32 91.24 75L58.85 107.39C57.51 108.73 55.75 109.4 54 109.4Z" fill="#22262B"/>
<path d="M102.19 61.21C105.968 61.21 109.03 58.1476 109.03 54.37C109.03 50.5924 105.968 47.53 102.19 47.53C98.4124 47.53 95.35 50.5924 95.35 54.37C95.35 58.1476 98.4124 61.21 102.19 61.21Z" fill="#22262B"/>
</svg>
