<svg width="362" height="93" viewBox="0 0 362 93" fill="none" xmlns="http://www.w3.org/2000/svg">
<path d="M17.1738 34.4053C15.846 34.4053 14.5181 33.8974 13.5015 32.892C11.4787 30.8707 11.4787 27.5849 13.5015 25.5637L37.5685 1.51594C39.5913 -0.505313 42.8798 -0.505313 44.9027 1.51594C46.9255 3.53719 46.9255 6.82302 44.9027 8.84427L20.8357 32.892C19.8295 33.8974 18.5017 34.4053 17.1738 34.4053Z" fill="#24292F"/>
<path d="M42.814 27.5885C40.7912 25.5672 40.7912 22.2814 42.814 20.2601L49.6918 13.3879C51.7354 11.3459 55.0757 11.3666 57.0986 13.4604C59.08 15.5128 58.9348 18.8194 56.9119 20.8406L50.1586 27.5885C48.1254 29.6097 44.8369 29.6097 42.814 27.5885Z" fill="#24292F"/>
<path d="M17.0175 58.546C15.6897 58.546 14.3619 58.0381 13.3453 57.0326C11.3224 55.0114 11.3224 51.7255 13.3453 49.7043L30.8249 32.2386C32.8478 30.2173 36.1362 30.2173 38.1591 32.2386C40.182 34.2598 40.182 37.5457 38.1591 39.5669L20.6795 57.0326C19.6732 58.0381 18.3454 58.546 17.0175 58.546Z" fill="#24292F"/>
<path d="M28.9707 70.4374C27.6429 70.4374 26.315 69.9295 25.2984 68.9241C23.2755 66.9028 23.2755 63.617 25.2984 61.5958L32.726 54.1741C34.7489 52.1529 38.0373 52.1529 40.0601 54.1741C42.083 56.1954 42.083 59.4812 40.0601 61.5025L32.6326 68.9241C31.6264 69.9295 30.2986 70.4374 28.9707 70.4374Z" fill="#24292F"/>
<path d="M48.3925 51.0435C47.0647 51.0435 45.7369 50.5356 44.7203 49.5301C42.6974 47.5089 42.6974 44.2231 44.7203 42.2018L61.6501 25.2855C63.673 23.2642 66.9614 23.2642 68.9843 25.2855C71.0071 27.3067 71.0071 30.5926 68.9843 32.6138L52.0545 49.5301C51.0379 50.5356 49.7204 51.0435 48.3925 51.0435Z" fill="#24292F"/>
<path d="M5.17652 46.3544C8.03541 46.3544 10.353 44.0387 10.353 41.1821C10.353 38.3255 8.03541 36.0098 5.17652 36.0098C2.31764 36.0098 0 38.3255 -1.08173e-10 41.1821C-1.67915e-10 44.0387 2.31764 46.3544 5.17652 46.3544Z" fill="#24292F"/>
<path d="M40.8535 82.6663C39.5256 82.6663 38.1978 82.1584 37.1812 81.1529C35.1583 79.1317 35.1583 75.8458 37.1812 73.8246L61.6735 49.3519C63.6963 47.3306 66.9848 47.3306 69.0077 49.3519C71.0305 51.3731 71.0305 54.659 69.0077 56.6802L44.505 81.1529C43.5092 82.1584 42.1813 82.6663 40.8535 82.6663Z" fill="#24292F"/>
<path d="M77.2936 46.2509C80.1525 46.2509 82.4701 43.9352 82.4701 41.0786C82.4701 38.222 80.1525 35.9062 77.2936 35.9062C74.4348 35.9062 72.1172 38.222 72.1172 41.0786C72.1172 43.9352 74.4348 46.2509 77.2936 46.2509Z" fill="#24292F"/>
<path d="M107.494 54.2112C105.089 52.8633 103.266 51.0071 102.014 48.6095C100.763 46.223 100.148 43.4829 100.148 40.3893C100.148 37.2293 100.785 34.4782 102.068 32.1248C103.352 29.7825 105.197 27.9705 107.613 26.7109C110.018 25.4514 112.877 24.8105 116.177 24.8105C119.456 24.8105 122.304 25.4514 124.699 26.722C127.093 28.0036 128.938 29.8156 130.221 32.158C131.505 34.5003 132.141 37.2404 132.141 40.3782C132.141 43.5271 131.483 46.3003 130.157 48.6979C128.83 51.0955 126.964 52.9517 124.537 54.2554C122.121 55.5592 119.316 56.211 116.134 56.211C112.769 56.2221 109.889 55.5592 107.494 54.2112ZM119.899 47.6372C120.934 46.9412 121.722 45.9578 122.25 44.7093C122.779 43.4608 123.048 42.0245 123.048 40.3893C123.048 38.7982 122.768 37.3951 122.196 36.1907C121.625 34.9754 120.826 34.0362 119.791 33.3733C118.755 32.7104 117.558 32.3789 116.188 32.3789C114.797 32.3789 113.567 32.7104 112.521 33.3733C111.474 34.0362 110.665 34.9754 110.104 36.1797C109.544 37.384 109.263 38.7872 109.263 40.3893C109.263 42.0245 109.544 43.4608 110.104 44.7204C110.665 45.9799 111.474 46.9522 112.51 47.6483C113.556 48.3443 114.764 48.6868 116.145 48.6868C117.612 48.6868 118.863 48.3443 119.899 47.6372Z" fill="#24292F"/>
<path d="M136.078 31.6133H142.518C142.939 31.6133 143.305 31.9226 143.381 32.3425L145.15 42.0322C145.43 43.5901 145.732 45.5678 146.056 47.9433C146.239 46.0982 146.541 44.1425 146.962 42.0764L148.893 32.3314C148.979 31.9116 149.335 31.6133 149.756 31.6133H157.447C157.867 31.6133 158.234 31.9226 158.31 32.3425L160.122 42.0764C160.478 43.8995 160.78 45.8551 161.028 47.9433C161.243 46.3412 161.567 44.3856 162.02 42.0764L163.929 32.3314C164.016 31.9116 164.372 31.6133 164.792 31.6133H170.488C171.048 31.6133 171.469 32.1547 171.34 32.7182L166.173 55.0918C166.076 55.5006 165.731 55.7879 165.321 55.7879H157.069C156.648 55.7879 156.292 55.4896 156.206 55.0587L154.232 44.7834C153.941 43.336 153.661 41.7781 153.412 40.0877C153.283 41.2146 153.024 42.7835 152.625 44.7834L150.608 55.0697C150.522 55.4896 150.166 55.7879 149.745 55.7879H141.407C141.008 55.7879 140.652 55.5006 140.555 55.1029L135.215 32.7292C135.097 32.1657 135.517 31.6133 136.078 31.6133Z" fill="#24292F"/>
<path d="M175.657 37.0439C175.657 36.0385 175.636 35.0331 175.582 34.0497C175.549 33.5083 175.528 33.0222 175.495 32.5913C175.452 32.072 175.851 31.619 176.369 31.619H182.582C183.024 31.619 183.391 31.9394 183.456 32.3924C183.499 32.746 183.542 33.1548 183.596 33.6299C183.682 34.5027 183.726 35.1546 183.726 35.5634H183.812C184.632 34.0497 185.656 32.9338 186.886 32.2267C188.116 31.5196 189.604 31.166 191.341 31.166C194.016 31.166 195.979 31.9726 197.209 33.5857C198.438 35.1988 199.064 37.4085 199.064 40.226L199.064 54.8987C199.064 55.3959 198.676 55.7936 198.19 55.7936H191.718C191.233 55.7936 190.845 55.3959 190.845 54.8987L190.845 42.6235C190.845 41.2093 190.607 40.1265 190.122 39.3863C189.647 38.646 188.838 38.2704 187.717 38.2704C186.476 38.2704 185.527 38.7012 184.88 39.552C184.233 40.4027 183.909 41.6181 183.909 43.187L183.909 54.8987C183.909 55.3959 183.521 55.7936 183.035 55.7936H176.563C176.078 55.7936 175.69 55.3959 175.69 54.8987L175.69 37.0439H175.657Z" fill="#24292F"/>
<path d="M205.499 25.2793H212.391C212.877 25.2793 213.265 25.677 213.265 26.1742L213.265 54.9009C213.265 55.3981 212.877 55.7959 212.391 55.7959H205.499C205.013 55.7959 204.625 55.3981 204.625 54.9009L204.625 26.1742C204.625 25.677 205.024 25.2793 205.499 25.2793Z" fill="#24292F"/>
<path d="M219.469 26.1742C219.469 25.677 219.857 25.2793 220.342 25.2793H231.841C237.083 25.2793 241.085 26.5168 243.857 28.9806C246.619 31.4445 247.999 35.2232 247.999 40.3056C247.999 43.587 247.352 46.3824 246.047 48.7136C244.742 51.0339 242.908 52.8017 240.524 53.9949C238.151 55.1882 235.39 55.7959 232.24 55.7959H220.342C219.857 55.7959 219.469 55.3981 219.469 54.9009L219.469 26.1742V26.1742ZM231.841 48.4374C234.225 48.4374 236.026 47.7524 237.267 46.3824C238.496 45.0123 239.122 43.0236 239.122 40.405C239.122 37.908 238.507 35.9855 237.288 34.6486C236.069 33.3117 234.214 32.6488 231.712 32.6488H228.12L228.12 48.4374H231.841V48.4374Z" fill="#24292F"/>
<path d="M104.148 87H100.523L106.047 71H110.406L115.922 87H112.297L108.289 74.6562H108.164L104.148 87ZM103.922 80.7109H112.484V83.3516H103.922V80.7109ZM133.042 71H136.425V81.3906C136.425 82.5573 136.146 83.5781 135.589 84.4531C135.037 85.3281 134.264 86.0104 133.269 86.5C132.274 86.9844 131.115 87.2266 129.792 87.2266C128.464 87.2266 127.303 86.9844 126.308 86.5C125.313 86.0104 124.54 85.3281 123.988 84.4531C123.435 83.5781 123.159 82.5573 123.159 81.3906V71H126.542V81.1016C126.542 81.7109 126.675 82.2526 126.941 82.7266C127.212 83.2005 127.592 83.5729 128.081 83.8438C128.571 84.1146 129.141 84.25 129.792 84.25C130.449 84.25 131.019 84.1146 131.503 83.8438C131.993 83.5729 132.37 83.2005 132.636 82.7266C132.907 82.2526 133.042 81.7109 133.042 81.1016V71ZM142.584 80.0625V87H139.256V75H142.428V77.1172H142.568C142.834 76.4193 143.279 75.8672 143.904 75.4609C144.529 75.0495 145.287 74.8438 146.178 74.8438C147.011 74.8438 147.738 75.026 148.357 75.3906C148.977 75.7552 149.459 76.276 149.803 76.9531C150.146 77.625 150.318 78.4271 150.318 79.3594V87H146.99V79.9531C146.995 79.2187 146.808 78.6458 146.428 78.2344C146.047 77.8177 145.524 77.6094 144.857 77.6094C144.409 77.6094 144.014 77.7057 143.67 77.8984C143.331 78.0911 143.066 78.3724 142.873 78.7422C142.685 79.1068 142.589 79.5469 142.584 80.0625ZM153.051 87V75H156.379V87H153.051ZM154.723 73.4531C154.228 73.4531 153.804 73.2891 153.45 72.9609C153.101 72.6276 152.926 72.2292 152.926 71.7656C152.926 71.3073 153.101 70.9141 153.45 70.5859C153.804 70.2526 154.228 70.0859 154.723 70.0859C155.218 70.0859 155.64 70.2526 155.989 70.5859C156.343 70.9141 156.52 71.3073 156.52 71.7656C156.52 72.2292 156.343 72.6276 155.989 72.9609C155.64 73.2891 155.218 73.4531 154.723 73.4531ZM164.577 87.2344C163.348 87.2344 162.291 86.974 161.405 86.4531C160.525 85.9271 159.848 85.1979 159.374 84.2656C158.905 83.3333 158.671 82.2604 158.671 81.0469C158.671 79.8177 158.908 78.7396 159.382 77.8125C159.861 76.8802 160.541 76.1536 161.421 75.6328C162.301 75.1068 163.348 74.8438 164.562 74.8438C165.609 74.8438 166.525 75.0339 167.312 75.4141C168.098 75.7943 168.721 76.3281 169.179 77.0156C169.637 77.7031 169.89 78.5104 169.937 79.4375H166.796C166.708 78.8385 166.473 78.3568 166.093 77.9922C165.718 77.6224 165.226 77.4375 164.616 77.4375C164.101 77.4375 163.65 77.5781 163.265 77.8594C162.885 78.1354 162.588 78.5391 162.374 79.0703C162.161 79.6016 162.054 80.2448 162.054 81C162.054 81.7656 162.158 82.4167 162.366 82.9531C162.58 83.4896 162.879 83.8984 163.265 84.1797C163.65 84.4609 164.101 84.6016 164.616 84.6016C164.997 84.6016 165.338 84.5234 165.64 84.3672C165.947 84.2109 166.2 83.9844 166.398 83.6875C166.601 83.3854 166.734 83.0234 166.796 82.6016H169.937C169.885 83.5182 169.635 84.3255 169.187 85.0234C168.744 85.7161 168.132 86.2578 167.351 86.6484C166.57 87.0391 165.645 87.2344 164.577 87.2344ZM177.599 87.2344C176.386 87.2344 175.336 86.9766 174.451 86.4609C173.571 85.9401 172.891 85.2161 172.412 84.2891C171.933 83.3568 171.693 82.276 171.693 81.0469C171.693 79.8073 171.933 78.724 172.412 77.7969C172.891 76.8646 173.571 76.1406 174.451 75.625C175.336 75.1042 176.386 74.8438 177.599 74.8438C178.813 74.8438 179.86 75.1042 180.74 75.625C181.625 76.1406 182.308 76.8646 182.787 77.7969C183.266 78.724 183.506 79.8073 183.506 81.0469C183.506 82.276 183.266 83.3568 182.787 84.2891C182.308 85.2161 181.625 85.9401 180.74 86.4609C179.86 86.9766 178.813 87.2344 177.599 87.2344ZM177.615 84.6562C178.167 84.6562 178.628 84.5 178.998 84.1875C179.368 83.8698 179.646 83.4375 179.834 82.8906C180.027 82.3437 180.123 81.7214 180.123 81.0234C180.123 80.3255 180.027 79.7031 179.834 79.1562C179.646 78.6094 179.368 78.1771 178.998 77.8594C178.628 77.5417 178.167 77.3828 177.615 77.3828C177.058 77.3828 176.589 77.5417 176.209 77.8594C175.834 78.1771 175.55 78.6094 175.357 79.1562C175.17 79.7031 175.076 80.3255 175.076 81.0234C175.076 81.7214 175.17 82.3437 175.357 82.8906C175.55 83.4375 175.834 83.8698 176.209 84.1875C176.589 84.5 177.058 84.6562 177.615 84.6562ZM201.653 76.1719C201.544 75.7917 201.39 75.4557 201.192 75.1641C200.995 74.8672 200.752 74.6172 200.466 74.4141C200.185 74.2057 199.862 74.0469 199.497 73.9375C199.138 73.8281 198.739 73.7734 198.302 73.7734C197.484 73.7734 196.765 73.9766 196.146 74.3828C195.531 74.7891 195.052 75.3802 194.708 76.1562C194.364 76.9271 194.192 77.8698 194.192 78.9844C194.192 80.099 194.362 81.0469 194.7 81.8281C195.039 82.6094 195.518 83.2057 196.138 83.6172C196.758 84.0234 197.489 84.2266 198.333 84.2266C199.099 84.2266 199.752 84.0911 200.294 83.8203C200.841 83.5443 201.258 83.1562 201.544 82.6562C201.836 82.1562 201.982 81.5651 201.982 80.8828L202.669 80.9844H198.544V78.4375H205.239V80.4531C205.239 81.8594 204.942 83.0677 204.349 84.0781C203.755 85.0833 202.937 85.8594 201.896 86.4062C200.854 86.9479 199.661 87.2187 198.317 87.2187C196.817 87.2187 195.5 86.888 194.364 86.2266C193.229 85.5599 192.344 84.6146 191.708 83.3906C191.078 82.1615 190.763 80.7031 190.763 79.0156C190.763 77.7187 190.95 76.5625 191.325 75.5469C191.706 74.526 192.237 73.6615 192.919 72.9531C193.601 72.2448 194.396 71.7057 195.302 71.3359C196.208 70.9661 197.19 70.7812 198.247 70.7812C199.153 70.7812 199.997 70.9141 200.778 71.1797C201.56 71.4401 202.252 71.8099 202.857 72.2891C203.466 72.7682 203.963 73.3385 204.349 74C204.734 74.6562 204.982 75.3802 205.091 76.1719H201.653ZM207.828 87V75H211.054V77.0937H211.179C211.398 76.349 211.765 75.7865 212.281 75.4063C212.797 75.0208 213.39 74.8281 214.062 74.8281C214.229 74.8281 214.409 74.8385 214.601 74.8594C214.794 74.8802 214.963 74.9089 215.109 74.9453V77.8984C214.953 77.8516 214.737 77.8099 214.461 77.7734C214.185 77.737 213.932 77.7188 213.703 77.7188C213.213 77.7188 212.776 77.8255 212.39 78.0391C212.01 78.2474 211.708 78.5391 211.484 78.9141C211.265 79.2891 211.156 79.7214 211.156 80.2109V87H207.828ZM221.803 87.2344C220.59 87.2344 219.54 86.9766 218.655 86.4609C217.774 85.9401 217.095 85.2161 216.616 84.2891C216.136 83.3568 215.897 82.276 215.897 81.0469C215.897 79.8073 216.136 78.724 216.616 77.7969C217.095 76.8646 217.774 76.1406 218.655 75.625C219.54 75.1042 220.59 74.8438 221.803 74.8438C223.017 74.8438 224.064 75.1042 224.944 75.625C225.829 76.1406 226.511 76.8646 226.991 77.7969C227.47 78.724 227.709 79.8073 227.709 81.0469C227.709 82.276 227.47 83.3568 226.991 84.2891C226.511 85.2161 225.829 85.9401 224.944 86.4609C224.064 86.9766 223.017 87.2344 221.803 87.2344ZM221.819 84.6562C222.371 84.6562 222.832 84.5 223.202 84.1875C223.571 83.8698 223.85 83.4375 224.037 82.8906C224.23 82.3437 224.327 81.7214 224.327 81.0234C224.327 80.3255 224.23 79.7031 224.037 79.1562C223.85 78.6094 223.571 78.1771 223.202 77.8594C222.832 77.5417 222.371 77.3828 221.819 77.3828C221.261 77.3828 220.793 77.5417 220.412 77.8594C220.037 78.1771 219.754 78.6094 219.561 79.1562C219.373 79.7031 219.28 80.3255 219.28 81.0234C219.28 81.7214 219.373 82.3437 219.561 82.8906C219.754 83.4375 220.037 83.8698 220.412 84.1875C220.793 84.5 221.261 84.6562 221.819 84.6562ZM237.679 81.8906V75H241.007V87H237.812V84.8203H237.687C237.416 85.5234 236.965 86.0885 236.335 86.5156C235.71 86.9427 234.947 87.1563 234.046 87.1563C233.244 87.1563 232.538 86.974 231.929 86.6094C231.319 86.2448 230.843 85.7266 230.499 85.0547C230.161 84.3828 229.989 83.5781 229.983 82.6406V75H233.312V82.0469C233.317 82.7552 233.507 83.3151 233.882 83.7266C234.257 84.138 234.759 84.3437 235.39 84.3437C235.791 84.3437 236.166 84.2526 236.515 84.0703C236.864 83.8828 237.145 83.6068 237.358 83.2422C237.577 82.8776 237.684 82.4271 237.679 81.8906ZM243.779 91.5V75H247.06V77.0156H247.209C247.355 76.6927 247.565 76.3646 247.841 76.0312C248.123 75.6927 248.487 75.4115 248.935 75.1875C249.388 74.9583 249.951 74.8438 250.623 74.8438C251.498 74.8438 252.305 75.0729 253.045 75.5313C253.784 75.9844 254.375 76.6693 254.818 77.5859C255.261 78.4974 255.482 79.6406 255.482 81.0156C255.482 82.3542 255.266 83.4844 254.834 84.4062C254.407 85.3229 253.823 86.0182 253.084 86.4922C252.349 86.9609 251.526 87.1953 250.615 87.1953C249.969 87.1953 249.42 87.0885 248.966 86.875C248.519 86.6615 248.151 86.3932 247.865 86.0703C247.578 85.7422 247.36 85.4115 247.209 85.0781H247.107V91.5H243.779ZM247.037 81C247.037 81.7135 247.136 82.3359 247.334 82.8672C247.532 83.3984 247.818 83.8125 248.193 84.1094C248.568 84.401 249.024 84.5469 249.56 84.5469C250.102 84.5469 250.56 84.3984 250.935 84.1016C251.31 83.7995 251.594 83.3828 251.787 82.8516C251.985 82.3151 252.084 81.6979 252.084 81C252.084 80.3073 251.987 79.6979 251.795 79.1719C251.602 78.6458 251.318 78.2344 250.943 77.9375C250.568 77.6406 250.107 77.4922 249.56 77.4922C249.019 77.4922 248.56 77.6354 248.185 77.9219C247.815 78.2083 247.532 78.6146 247.334 79.1406C247.136 79.6667 247.037 80.2865 247.037 81ZM268.435 87.2344C267.205 87.2344 266.148 86.974 265.263 86.4531C264.382 85.9271 263.705 85.1979 263.231 84.2656C262.763 83.3333 262.528 82.2604 262.528 81.0469C262.528 79.8177 262.765 78.7396 263.239 77.8125C263.718 76.8802 264.398 76.1536 265.278 75.6328C266.158 75.1068 267.205 74.8438 268.419 74.8438C269.466 74.8438 270.382 75.0339 271.169 75.4141C271.955 75.7943 272.578 76.3281 273.036 77.0156C273.494 77.7031 273.747 78.5104 273.794 79.4375H270.653C270.565 78.8385 270.33 78.3568 269.95 77.9922C269.575 77.6224 269.083 77.4375 268.474 77.4375C267.958 77.4375 267.507 77.5781 267.122 77.8594C266.742 78.1354 266.445 78.5391 266.231 79.0703C266.018 79.6016 265.911 80.2448 265.911 81C265.911 81.7656 266.015 82.4167 266.224 82.9531C266.437 83.4896 266.737 83.8984 267.122 84.1797C267.507 84.4609 267.958 84.6016 268.474 84.6016C268.854 84.6016 269.195 84.5234 269.497 84.3672C269.804 84.2109 270.057 83.9844 270.255 83.6875C270.458 83.3854 270.591 83.0234 270.653 82.6016H273.794C273.742 83.5182 273.492 84.3255 273.044 85.0234C272.601 85.7161 271.989 86.2578 271.208 86.6484C270.427 87.0391 269.502 87.2344 268.435 87.2344ZM281.457 87.2344C280.243 87.2344 279.194 86.9766 278.308 86.4609C277.428 85.9401 276.748 85.2161 276.269 84.2891C275.79 83.3568 275.55 82.276 275.55 81.0469C275.55 79.8073 275.79 78.724 276.269 77.7969C276.748 76.8646 277.428 76.1406 278.308 75.625C279.194 75.1042 280.243 74.8438 281.457 74.8438C282.67 74.8438 283.717 75.1042 284.597 75.625C285.483 76.1406 286.165 76.8646 286.644 77.7969C287.123 78.724 287.363 79.8073 287.363 81.0469C287.363 82.276 287.123 83.3568 286.644 84.2891C286.165 85.2161 285.483 85.9401 284.597 86.4609C283.717 86.9766 282.67 87.2344 281.457 87.2344ZM281.472 84.6562C282.024 84.6562 282.485 84.5 282.855 84.1875C283.225 83.8698 283.504 83.4375 283.691 82.8906C283.884 82.3437 283.98 81.7214 283.98 81.0234C283.98 80.3255 283.884 79.7031 283.691 79.1562C283.504 78.6094 283.225 78.1771 282.855 77.8594C282.485 77.5417 282.024 77.3828 281.472 77.3828C280.915 77.3828 280.446 77.5417 280.066 77.8594C279.691 78.1771 279.407 78.6094 279.214 79.1562C279.027 79.7031 278.933 80.3255 278.933 81.0234C278.933 81.7214 279.027 82.3437 279.214 82.8906C279.407 83.4375 279.691 83.8698 280.066 84.1875C280.446 84.5 280.915 84.6562 281.472 84.6562ZM289.637 87V75H292.809V77.1172H292.949C293.199 76.4141 293.616 75.8594 294.199 75.4531C294.783 75.0469 295.481 74.8438 296.293 74.8438C297.116 74.8438 297.817 75.0495 298.395 75.4609C298.973 75.8672 299.358 76.4193 299.551 77.1172H299.676C299.921 76.4297 300.364 75.8802 301.004 75.4687C301.65 75.0521 302.413 74.8438 303.293 74.8438C304.413 74.8438 305.322 75.2005 306.02 75.9141C306.723 76.6224 307.074 77.6276 307.074 78.9297V87H303.754V79.5859C303.754 78.9193 303.577 78.4193 303.223 78.0859C302.869 77.7526 302.426 77.5859 301.895 77.5859C301.291 77.5859 300.819 77.7786 300.481 78.1641C300.142 78.5443 299.973 79.0469 299.973 79.6719V87H296.746V79.5156C296.746 78.9271 296.577 78.4583 296.239 78.1094C295.905 77.7604 295.465 77.5859 294.918 77.5859C294.548 77.5859 294.215 77.6797 293.918 77.8672C293.627 78.0495 293.395 78.3073 293.223 78.6406C293.051 78.9687 292.965 79.3542 292.965 79.7969V87H289.637ZM309.813 91.5V75H313.095V77.0156H313.243C313.389 76.6927 313.6 76.3646 313.876 76.0312C314.157 75.6927 314.522 75.4115 314.97 75.1875C315.423 74.9583 315.985 74.8438 316.657 74.8438C317.532 74.8438 318.339 75.0729 319.079 75.5313C319.819 75.9844 320.41 76.6693 320.852 77.5859C321.295 78.4974 321.516 79.6406 321.516 81.0156C321.516 82.3542 321.3 83.4844 320.868 84.4062C320.441 85.3229 319.858 86.0182 319.118 86.4922C318.384 86.9609 317.561 87.1953 316.649 87.1953C316.003 87.1953 315.454 87.0885 315.001 86.875C314.553 86.6615 314.186 86.3932 313.899 86.0703C313.613 85.7422 313.394 85.4115 313.243 85.0781H313.141V91.5H309.813ZM313.071 81C313.071 81.7135 313.17 82.3359 313.368 82.8672C313.566 83.3984 313.852 83.8125 314.227 84.1094C314.602 84.401 315.058 84.5469 315.595 84.5469C316.136 84.5469 316.595 84.3984 316.97 84.1016C317.345 83.7995 317.628 83.3828 317.821 82.8516C318.019 82.3151 318.118 81.6979 318.118 81C318.118 80.3073 318.022 79.6979 317.829 79.1719C317.636 78.6458 317.352 78.2344 316.977 77.9375C316.602 77.6406 316.141 77.4922 315.595 77.4922C315.053 77.4922 314.595 77.6354 314.22 77.9219C313.85 78.2083 313.566 78.6146 313.368 79.1406C313.17 79.6667 313.071 80.2865 313.071 81ZM327.267 87.2266C326.501 87.2266 325.819 87.0938 325.22 86.8281C324.621 86.5573 324.147 86.1589 323.798 85.6328C323.455 85.1016 323.283 84.4401 323.283 83.6484C323.283 82.9818 323.405 82.4219 323.65 81.9687C323.895 81.5156 324.228 81.151 324.65 80.875C325.072 80.599 325.551 80.3906 326.087 80.25C326.629 80.1094 327.197 80.0104 327.791 79.9531C328.488 79.8802 329.051 79.8125 329.478 79.75C329.905 79.6823 330.215 79.5833 330.408 79.4531C330.6 79.3229 330.697 79.1302 330.697 78.875V78.8281C330.697 78.3333 330.541 77.9505 330.228 77.6797C329.921 77.4089 329.483 77.2734 328.916 77.2734C328.317 77.2734 327.84 77.4062 327.486 77.6719C327.132 77.9323 326.897 78.2604 326.783 78.6562L323.705 78.4062C323.861 77.6771 324.168 77.0469 324.626 76.5156C325.085 75.9792 325.676 75.5677 326.4 75.2812C327.129 74.9896 327.973 74.8438 328.931 74.8438C329.598 74.8438 330.236 74.9219 330.845 75.0781C331.46 75.2344 332.004 75.4766 332.478 75.8047C332.957 76.1328 333.335 76.5547 333.611 77.0703C333.887 77.5807 334.025 78.1927 334.025 78.9062V87H330.869V85.3359H330.775C330.582 85.7109 330.324 86.0417 330.001 86.3281C329.679 86.6094 329.291 86.8307 328.837 86.9922C328.384 87.1484 327.861 87.2266 327.267 87.2266ZM328.22 84.9297C328.71 84.9297 329.142 84.8333 329.517 84.6406C329.892 84.4427 330.186 84.1771 330.4 83.8438C330.613 83.5104 330.72 83.1328 330.72 82.7109V81.4375C330.616 81.5052 330.473 81.5677 330.291 81.625C330.113 81.6771 329.913 81.7266 329.689 81.7734C329.465 81.8151 329.241 81.8542 329.017 81.8906C328.793 81.9219 328.59 81.9505 328.408 81.9766C328.017 82.0339 327.676 82.125 327.384 82.25C327.093 82.375 326.866 82.5443 326.705 82.7578C326.543 82.9661 326.462 83.2266 326.462 83.5391C326.462 83.9922 326.626 84.3385 326.955 84.5781C327.288 84.8125 327.71 84.9297 328.22 84.9297ZM340.045 80.0625V87H336.717V75H339.889V77.1172H340.029C340.295 76.4193 340.74 75.8672 341.365 75.4609C341.99 75.0495 342.748 74.8438 343.639 74.8438C344.472 74.8438 345.199 75.026 345.819 75.3906C346.438 75.7552 346.92 76.276 347.264 76.9531C347.608 77.625 347.779 78.4271 347.779 79.3594V87H344.451V79.9531C344.457 79.2187 344.269 78.6458 343.889 78.2344C343.509 77.8177 342.985 77.6094 342.319 77.6094C341.871 77.6094 341.475 77.7057 341.131 77.8984C340.792 78.0911 340.527 78.3724 340.334 78.7422C340.147 79.1068 340.05 79.5469 340.045 80.0625ZM352.137 91.5C351.716 91.5 351.32 91.4661 350.95 91.3984C350.585 91.3359 350.283 91.2552 350.044 91.1562L350.794 88.6719C351.184 88.7917 351.536 88.8568 351.848 88.8672C352.166 88.8776 352.44 88.8047 352.669 88.6484C352.903 88.4922 353.093 88.2266 353.239 87.8516L353.434 87.3438L349.13 75H352.63L355.114 83.8125H355.239L357.747 75H361.27L356.606 88.2969C356.382 88.9427 356.078 89.5052 355.692 89.9844C355.312 90.4688 354.83 90.8411 354.247 91.1016C353.664 91.3672 352.96 91.5 352.137 91.5Z" fill="#24292F"/>
</svg>
